<svg width="16" height="16" viewBox="0 0 16 16" fill="none" xmlns="http://www.w3.org/2000/svg">
<path d="M15.3125 0.1875H0.9375C0.591797 0.1875 0.3125 0.466797 0.3125 0.8125V15.1875C0.3125 15.5332 0.591797 15.8125 0.9375 15.8125H7.96875C8.05469 15.8125 8.125 15.7422 8.125 15.6562V14.5625C8.125 14.4766 8.05469 14.4062 7.96875 14.4062H1.71875V1.59375H14.5312V7.84375C14.5312 7.92969 14.6016 8 14.6875 8H15.7812C15.8672 8 15.9375 7.92969 15.9375 7.84375V0.8125C15.9375 0.466797 15.6582 0.1875 15.3125 0.1875ZM10.8848 9.70703L11.9043 8.6875C11.9249 8.66675 11.9394 8.64061 11.9459 8.61207C11.9524 8.58353 11.9508 8.55372 11.9413 8.52605C11.9317 8.49838 11.9146 8.47394 11.8918 8.45552C11.869 8.43711 11.8416 8.42545 11.8125 8.42188L8.30859 8.01172C8.20898 8 8.12305 8.08398 8.13477 8.18555L8.54492 11.6895C8.56055 11.8184 8.71875 11.873 8.81055 11.7812L9.83398 10.7578L14.8379 15.7617C14.8984 15.8223 14.998 15.8223 15.0586 15.7617L15.8867 14.9336C15.9473 14.873 15.9473 14.7734 15.8867 14.7129L10.8848 9.70703Z" fill="white"/>
</svg>
